<svg id="kity_svg_6" xmlns="http://www.w3.org/2000/svg" xmlns:xlink="http://www.w3.org/1999/xlink" version="1.1" width="800" height="283" style="background: rgb(251, 251, 251); visibility: visible;" viewBox="0 0 800 283"><defs id="kity_defs_7"><linearGradient id="kity_linearGradient_17" x1="0" y1="0" x2="0" y2="1"><stop id="kity_stop_18" offset="0" stop-color="rgb(255, 255, 255)"></stop><stop id="kity_stop_19" offset="1" stop-color="rgb(204, 204, 204)"></stop></linearGradient><marker id="kity_marker_2" orient="auto" refX="6" refY="0" viewBox="-7 -7 14 14" markerWidth="7" markerHeight="7" markerUnits="userSpaceOnUse"><path id="kity_path_3" fill="rgb(115, 161, 191)" stroke="none" d="M6,0A6,6,0,1,1,-6,0A6,6,0,1,1,6,0"></path></marker></defs><g id="kity_g_8"><g id="minder1" text-rendering="optimize-speed"><g id="minder_connect_group1"><path id="kity_path_31" fill="none" stroke="rgb(115, 161, 191)" stroke-width="1" d="M395.5000109747052,153.50000324100256A166,45,0,0,1,561.5000109747052,108.50000324100256"></path><path id="kity_path_39" fill="none" stroke="rgb(115, 161, 191)" stroke-width="1" d="M395.5000109747052,153.50000324100256A166,45,0,0,0,561.5000109747052,198.50000324100256"></path><path id="kity_path_47" fill="none" stroke="rgb(115, 161, 191)" stroke-width="1" d="M395.5000109747052,153.50000324100256A166,70,0,0,0,229.50001097470522,83.50000324100256"></path><path id="kity_path_55" fill="none" stroke="rgb(115, 161, 191)" stroke-width="1" d="M395.5000109747052,153.50000324100256A166,70,0,0,1,229.50001097470522,223.50000324100256"></path><path id="kity_path_63" fill="none" stroke="rgb(115, 161, 191)" stroke-width="1" d="M131.50001097470522,83.50000324100256C116.50001097470522,83.50000324100256,116.50001097470522,45.50000324100256,101.50001097470522,45.50000324100256L21.50001097470522,45.50000324100256"></path><path id="kity_path_71" fill="none" stroke="rgb(115, 161, 191)" stroke-width="1" d="M131.50001097470522,83.50000324100256C116.50001097470522,83.50000324100256,116.50001097470522,97.50000324100256,101.50001097470522,97.50000324100256L33.50001097470522,97.50000324100256"></path><path id="kity_path_79" fill="none" stroke="rgb(115, 161, 191)" stroke-width="1" d="M131.50001097470522,83.50000324100256C116.50001097470522,83.50000324100256,116.50001097470522,149.50000324100256,101.50001097470522,149.50000324100256L21.50001097470522,149.50000324100256"></path><path id="kity_path_87" fill="none" stroke="rgb(115, 161, 191)" stroke-width="1" d="M129.50001097470522,223.50000324100256C114.50001097470522,223.50000324100256,114.50001097470522,211.50000324100256,99.50001097470522,211.50000324100256L20.50001097470522,211.50000324100256"></path><path id="kity_path_95" fill="none" stroke="rgb(115, 161, 191)" stroke-width="1" d="M129.50001097470522,223.50000324100256C114.50001097470522,223.50000324100256,114.50001097470522,263.50000324100256,99.50001097470522,263.50000324100256L20.50001097470522,263.50000324100256"></path><path id="kity_path_103" fill="none" stroke="rgb(115, 161, 191)" stroke-width="1" d="M660.5000109747052,108.50000324100256C675.5000109747052,108.50000324100256,675.5000109747052,122.50000324100256,690.5000109747052,122.50000324100256L769.5000109747052,122.50000324100256"></path><path id="kity_path_111" fill="none" stroke="rgb(115, 161, 191)" stroke-width="1" d="M659.5000109747052,198.50000324100256C674.5000109747052,198.50000324100256,674.5000109747052,186.50000324100256,689.5000109747052,186.50000324100256L768.5000109747052,186.50000324100256"></path><path id="kity_path_119" fill="none" stroke="rgb(115, 161, 191)" stroke-width="1" d="M659.5000109747052,198.50000324100256C674.5000109747052,198.50000324100256,674.5000109747052,238.50000324100256,689.5000109747052,238.50000324100256L780.5000109747052,238.50000324100256"></path></g><g id="minder_node1"><path id="node_outline1" fill="rgb(115, 161, 191)" stroke="rgb(115, 161, 191)" d="M352.5000109747052,133.50000324100256h86a5,5,0,0,1,5,5v30a5,5,0,0,1,-5,5h-86a5,5,0,0,1,-5,-5v-30a5,5,0,0,1,5,-5z" stroke-width="3"></path><g id="node_text1" fill="white"><text id="kity_text_22" text-rendering="inherit" font-size="16" dy=".8em" y="143.10000320523977" x="371.5000109747052">贪吃蛇</text></g></g><g id="kity_g_12"><path id="kity_path_13" fill="none" stroke="none" d="M371.5000109747052,153.50000324100256h0v0h0z"></path></g><g id="kity_g_14"><path id="kity_path_15" fill="none" stroke="none" d="M371.5000109747052,153.50000324100256h0v0h0z"></path><path id="kity_path_16" fill="none" stroke="none"></path></g><g id="minder_node2"><g id="node_expander1" style="cursor: pointer;"><path id="kity_path_36" fill="white" stroke="gray" d="M562.50001373142,108.5000025704503A6,6,0,1,1,550.50001373142,108.5000025704503A6,6,0,1,1,562.50001373142,108.5000025704503"></path><path id="kity_path_37" fill="none" stroke="gray" d="M552.00001373142,108.5000025704503L561.00001373142,108.5000025704503"></path></g><path id="node_outline2" fill="rgb(238, 243, 246)" stroke="rgb(115, 161, 191)" d="M566.5000141337514,95.5000025704503h91a3,3,0,0,1,3,3v20a3,3,0,0,1,-3,3h-91a3,3,0,0,1,-3,-3v-20a3,3,0,0,1,3,-3z" stroke-width="1"></path><g id="node_text2" fill="black"><text id="kity_text_33" text-rendering="inherit" font-size="14" dy=".8em" y="99.40000253915787" x="583.5000141337514">游戏结束</text></g></g><g id="minder_node3"><g id="node_expander2" style="cursor: pointer;"><path id="kity_path_44" fill="white" stroke="gray" d="M562.50001373142,198.5000039115548A6,6,0,1,1,550.50001373142,198.5000039115548A6,6,0,1,1,562.50001373142,198.5000039115548"></path><path id="kity_path_45" fill="none" stroke="gray" d="M552.00001373142,198.5000039115548L561.00001373142,198.5000039115548"></path></g><path id="node_outline3" fill="rgb(238, 243, 246)" stroke="rgb(115, 161, 191)" d="M566.5000141337514,185.5000039115548h90a3,3,0,0,1,3,3v20a3,3,0,0,1,-3,3h-90a3,3,0,0,1,-3,-3v-20a3,3,0,0,1,3,-3z" stroke-width="1"></path><g id="node_text3" fill="black"><text id="kity_text_41" text-rendering="inherit" font-size="14" dy=".8em" y="189.40000388026237" x="583.5000141337514">常规功能</text></g></g><g id="minder_node4"><g id="node_expander3" style="cursor: pointer;"><path id="kity_path_52" fill="white" stroke="gray" d="M240.50000893324614,83.50000219792128A6,6,0,1,1,228.50000893324614,83.50000219792128A6,6,0,1,1,240.50000893324614,83.50000219792128"></path><path id="kity_path_53" fill="none" stroke="gray" d="M230.00000893324614,83.50000219792128L239.00000893324614,83.50000219792128"></path></g><path id="node_outline4" fill="rgb(238, 243, 246)" stroke="rgb(115, 161, 191)" d="M134.50000769644976,70.50000219792128h90a3,3,0,0,1,3,3v20a3,3,0,0,1,-3,3h-90a3,3,0,0,1,-3,-3v-20a3,3,0,0,1,3,-3z" stroke-width="1"></path><g id="node_text4" fill="black"><text id="kity_text_49" text-rendering="inherit" font-size="14" dy=".8em" y="74.40000216662884" x="151.50000769644976">画面设计</text></g></g><g id="minder_node5"><g id="node_expander4" style="cursor: pointer;"><path id="kity_path_60" fill="white" stroke="gray" d="M240.50000893324614,223.50000428408384A6,6,0,1,1,228.50000893324614,223.50000428408384A6,6,0,1,1,240.50000893324614,223.50000428408384"></path><path id="kity_path_61" fill="none" stroke="gray" d="M230.00000893324614,223.50000428408384L239.00000893324614,223.50000428408384"></path></g><path id="node_outline5" fill="rgb(238, 243, 246)" stroke="rgb(115, 161, 191)" d="M132.50000766664743,210.50000428408384h92a3,3,0,0,1,3,3v20a3,3,0,0,1,-3,3h-92a3,3,0,0,1,-3,-3v-20a3,3,0,0,1,3,-3z" stroke-width="1"></path><g id="node_text5" fill="black"><text id="kity_text_57" text-rendering="inherit" font-size="14" dy=".8em" y="214.4000042527914" x="149.50000766664743">游戏过程</text></g></g><g id="minder_node6"><g id="node_expander5" style="cursor: pointer;" display="none"><path id="kity_path_68" fill="white" stroke="gray" d="M103.50000689178705,31.500001423060894A6,6,0,1,1,91.50000689178705,31.500001423060894A6,6,0,1,1,103.50000689178705,31.500001423060894"></path><path id="kity_path_69" fill="none" stroke="gray"></path></g><path id="node_outline6" fill="none" stroke="none" d="M26.500005908310413,20.500001423060894h60a5,5,0,0,1,5,5v12a5,5,0,0,1,-5,5h-60a5,5,0,0,1,-5,-5v-12a5,5,0,0,1,5,-5z" stroke-width="3"></path><g id="node_text6" fill="black"><text id="kity_text_65" text-rendering="inherit" font-size="12" dy=".8em" y="23.700001396238804" x="31.500005908310413">界面构造</text></g></g><g id="minder_node7"><g id="node_expander6" style="cursor: pointer;" display="none"><path id="kity_path_76" fill="white" stroke="gray" d="M103.50000689178705,83.50000219792128A6,6,0,1,1,91.50000689178705,83.50000219792128A6,6,0,1,1,103.50000689178705,83.50000219792128"></path><path id="kity_path_77" fill="none" stroke="gray"></path></g><path id="node_outline7" fill="none" stroke="none" d="M38.50000608712435,72.50000219792128h48a5,5,0,0,1,5,5v12a5,5,0,0,1,-5,5h-48a5,5,0,0,1,-5,-5v-12a5,5,0,0,1,5,-5z" stroke-width="3"></path><g id="node_text7" fill="black"><text id="kity_text_73" text-rendering="inherit" font-size="12" dy=".8em" y="75.70000217109919" x="43.50000608712435">蛇构造</text></g></g><g id="minder_node8"><g id="node_expander7" style="cursor: pointer;" display="none"><path id="kity_path_84" fill="white" stroke="gray" d="M103.50000689178705,135.50000297278166A6,6,0,1,1,91.50000689178705,135.50000297278166A6,6,0,1,1,103.50000689178705,135.50000297278166"></path><path id="kity_path_85" fill="none" stroke="gray"></path></g><path id="node_outline8" fill="none" stroke="none" d="M26.500005908310413,124.50000297278166h60a5,5,0,0,1,5,5v12a5,5,0,0,1,-5,5h-60a5,5,0,0,1,-5,-5v-12a5,5,0,0,1,5,-5z" stroke-width="3"></path><g id="node_text8" fill="black"><text id="kity_text_81" text-rendering="inherit" font-size="12" dy=".8em" y="127.70000294595957" x="31.500005908310413">食物构造</text></g></g><g id="minder_node9"><g id="node_expander8" style="cursor: pointer;" display="none"><path id="kity_path_92" fill="white" stroke="gray" d="M101.50000686198473,197.50000389665365A6,6,0,1,1,89.50000686198473,197.50000389665365A6,6,0,1,1,101.50000686198473,197.50000389665365"></path><path id="kity_path_93" fill="none" stroke="gray"></path></g><path id="node_outline9" fill="none" stroke="none" d="M25.500005893409252,186.50000389665365h59a5,5,0,0,1,5,5v12a5,5,0,0,1,-5,5h-59a5,5,0,0,1,-5,-5v-12a5,5,0,0,1,5,-5z" stroke-width="3"></path><g id="node_text9" fill="black"><text id="kity_text_89" text-rendering="inherit" font-size="12" dy=".8em" y="189.70000386983156" x="30.500005893409252">蛇的移动</text></g></g><g id="minder_node10"><g id="node_expander9" style="cursor: pointer;" display="none"><path id="kity_path_100" fill="white" stroke="gray" d="M101.50000686198473,249.50000467151403A6,6,0,1,1,89.50000686198473,249.50000467151403A6,6,0,1,1,101.50000686198473,249.50000467151403"></path><path id="kity_path_101" fill="none" stroke="gray"></path></g><path id="node_outline10" fill="none" stroke="none" d="M25.500005893409252,238.50000467151403h59a5,5,0,0,1,5,5v12a5,5,0,0,1,-5,5h-59a5,5,0,0,1,-5,-5v-12a5,5,0,0,1,5,-5z" stroke-width="3"></path><g id="node_text10" fill="black"><text id="kity_text_97" text-rendering="inherit" font-size="12" dy=".8em" y="241.70000464469194" x="30.500005893409252">碰撞检测</text></g></g><g id="minder_node11"><g id="node_expander10" style="cursor: pointer;" display="none"><path id="kity_path_108" fill="white" stroke="gray" d="M700.5000157877803,108.5000025704503A6,6,0,1,1,688.5000157877803,108.5000025704503A6,6,0,1,1,700.5000157877803,108.5000025704503"></path><path id="kity_path_109" fill="none" stroke="gray"></path></g><path id="node_outline11" fill="none" stroke="none" d="M705.5000160261989,97.5000025704503h59a5,5,0,0,1,5,5v12a5,5,0,0,1,-5,5h-59a5,5,0,0,1,-5,-5v-12a5,5,0,0,1,5,-5z" stroke-width="3"></path><g id="node_text11" fill="black"><text id="kity_text_105" text-rendering="inherit" font-size="12" dy=".8em" y="100.70000254362822" x="710.5000160261989">死亡判定</text></g></g><g id="minder_node12"><g id="node_expander11" style="cursor: pointer;" display="none"><path id="kity_path_116" fill="white" stroke="gray" d="M699.5000157728791,172.50000352412462A6,6,0,1,1,687.5000157728791,172.50000352412462A6,6,0,1,1,699.5000157728791,172.50000352412462"></path><path id="kity_path_117" fill="none" stroke="gray"></path></g><path id="node_outline12" fill="none" stroke="none" d="M704.5000160112977,161.50000352412462h59a5,5,0,0,1,5,5v12a5,5,0,0,1,-5,5h-59a5,5,0,0,1,-5,-5v-12a5,5,0,0,1,5,-5z" stroke-width="3"></path><g id="node_text12" fill="black"><text id="kity_text_113" text-rendering="inherit" font-size="12" dy=".8em" y="164.70000349730253" x="709.5000160112977">蛇身增长</text></g></g><g id="minder_node13"><g id="node_expander12" style="cursor: pointer;" display="none"><path id="kity_path_124" fill="white" stroke="gray" d="M699.5000157728791,224.500004298985A6,6,0,1,1,687.5000157728791,224.500004298985A6,6,0,1,1,699.5000157728791,224.500004298985"></path><path id="kity_path_125" fill="none" stroke="gray"></path></g><path id="node_outline13" fill="none" stroke="none" d="M704.5000160112977,213.500004298985h71a5,5,0,0,1,5,5v12a5,5,0,0,1,-5,5h-71a5,5,0,0,1,-5,-5v-12a5,5,0,0,1,5,-5z" stroke-width="3"></path><g id="node_text13" fill="black"><text id="kity_text_121" text-rendering="inherit" font-size="12" dy=".8em" y="216.70000427216291" x="709.5000160112977">吃食物判定</text></g></g></g></g></svg>