<svg id="kity_svg_6" xmlns="http://www.w3.org/2000/svg" xmlns:xlink="http://www.w3.org/1999/xlink" version="1.1" width="878" height="283" style="background: rgb(251, 251, 251); visibility: visible;" viewBox="0 0 878 283"><defs id="kity_defs_7"><linearGradient id="kity_linearGradient_17" x1="0" y1="0" x2="0" y2="1"><stop id="kity_stop_18" offset="0" stop-color="rgb(255, 255, 255)"></stop><stop id="kity_stop_19" offset="1" stop-color="rgb(204, 204, 204)"></stop></linearGradient><marker id="kity_marker_2" orient="auto" refX="6" refY="0" viewBox="-7 -7 14 14" markerWidth="7" markerHeight="7" markerUnits="userSpaceOnUse"><path id="kity_path_3" fill="rgb(191, 115, 115)" stroke="none" d="M6,0A6,6,0,1,1,-6,0A6,6,0,1,1,6,0"></path></marker></defs><g id="kity_g_8"><g id="minder1" text-rendering="optimize-speed"><g id="minder_connect_group1"><path id="kity_path_36" fill="none" stroke="rgb(191, 115, 115)" stroke-width="1" d="M427.50001095980406,153.5000040307641A174,70,0,0,1,601.5000109598041,83.5000040307641"></path><path id="kity_path_44" fill="none" stroke="rgb(191, 115, 115)" stroke-width="1" d="M699.5000109598041,83.5000040307641C714.5000109598041,83.5000040307641,714.5000109598041,45.5000040307641,729.5000109598041,45.5000040307641L808.5000109598041,45.5000040307641"></path><path id="kity_path_68" fill="none" stroke="rgb(191, 115, 115)" stroke-width="1" d="M699.5000109598041,83.5000040307641C714.5000109598041,83.5000040307641,714.5000109598041,97.5000040307641,729.5000109598041,97.5000040307641L784.5000109598041,97.5000040307641"></path><path id="kity_path_92" fill="none" stroke="rgb(191, 115, 115)" stroke-width="1" d="M699.5000109598041,83.5000040307641C714.5000109598041,83.5000040307641,714.5000109598041,149.5000040307641,729.5000109598041,149.5000040307641L809.5000109598041,149.5000040307641"></path><path id="kity_path_100" fill="none" stroke="rgb(191, 115, 115)" stroke-width="1" d="M427.50001095980406,153.5000040307641A174,70,0,0,0,601.5000109598041,223.5000040307641"></path><path id="kity_path_108" fill="none" stroke="rgb(191, 115, 115)" stroke-width="1" d="M427.50001095980406,153.5000040307641A174,57,0,0,0,253.50001095980406,96.5000040307641"></path><path id="kity_path_116" fill="none" stroke="rgb(191, 115, 115)" stroke-width="1" d="M427.50001095980406,153.5000040307641A174,57,0,0,1,253.50001095980406,210.5000040307641"></path><path id="kity_path_124" fill="none" stroke="rgb(191, 115, 115)" stroke-width="1" d="M701.5000109598041,223.5000040307641C716.5000109598041,223.5000040307641,716.5000109598041,211.5000040307641,731.5000109598041,211.5000040307641L834.5000109598041,211.5000040307641"></path><path id="kity_path_132" fill="none" stroke="rgb(191, 115, 115)" stroke-width="1" d="M701.5000109598041,223.5000040307641C716.5000109598041,223.5000040307641,716.5000109598041,263.5000040307641,731.5000109598041,263.5000040307641L858.5000109598041,263.5000040307641"></path><path id="kity_path_140" fill="none" stroke="rgb(191, 115, 115)" stroke-width="1" d="M154.50001095980406,96.5000040307641C139.50001095980406,96.5000040307641,139.50001095980406,84.5000040307641,124.50001095980406,84.5000040307641L20.500010959804058,84.5000040307641"></path><path id="kity_path_148" fill="none" stroke="rgb(191, 115, 115)" stroke-width="1" d="M154.50001095980406,96.5000040307641C139.50001095980406,96.5000040307641,139.50001095980406,136.5000040307641,124.50001095980406,136.5000040307641L45.50001095980406,136.5000040307641"></path><path id="kity_path_156" fill="none" stroke="rgb(191, 115, 115)" stroke-width="1" d="M155.50001095980406,210.5000040307641C140.50001095980406,210.5000040307641,140.50001095980406,198.5000040307641,125.50001095980406,198.5000040307641L46.50001095980406,198.5000040307641"></path><path id="kity_path_164" fill="none" stroke="rgb(191, 115, 115)" stroke-width="1" d="M155.50001095980406,210.5000040307641C140.50001095980406,210.5000040307641,140.50001095980406,250.5000040307641,125.50001095980406,250.5000040307641L22.500010959804058,250.5000040307641"></path></g><g id="minder_node1"><path id="node_outline1" fill="rgb(191, 115, 115)" stroke="rgb(191, 115, 115)" d="M376.50001095980406,133.5000040307641h102a5,5,0,0,1,5,5v30a5,5,0,0,1,-5,5h-102a5,5,0,0,1,-5,-5v-30a5,5,0,0,1,5,-5z" stroke-width="3"></path><g id="node_text1" fill="white"><text id="kity_text_22" text-rendering="inherit" font-size="16" dy=".8em" y="143.10000399500132" x="395.50001095980406">飞行小鸟</text></g><g id="node_priority1" display="none"><path id="kity_path_32" fill="#01467F" stroke="none" d="M366.0000105202198,157.00000388920307c0,3.866,3.134,7,7,7h6c3.866,0,7,-3.134,7,-7V151.00000388920307H366.0000105202198V157.00000388920307z"></path><path id="kity_path_33" fill="#0074FF" stroke="none" d="M386.0000105202198,154.00000388920307c0,3.866,-3.134,7,-7,7H373.0000105202198c-3.866,0,-7,-3.134,-7,-7V151.00000388920307c0,-3.866,3.134,-7,7,-7h6c3.866,0,7,3.134,7,7V154.00000388920307z" opacity="0.8"></path><text id="kity_text_34" text-rendering="geometricPrecision" x="375.0000105127692" y="153.5000038817525" text-anchor="middle" font-style="italic" font-size="12" fill="white" dy="5">2</text></g></g><g id="kity_g_12"><path id="kity_path_13" fill="none" stroke="none" d="M395.50001095980406,153.5000040307641h0v0h0z"></path></g><g id="kity_g_14"><path id="kity_path_15" fill="none" stroke="none" d="M395.50001095980406,153.5000040307641h0v0h0z"></path><path id="kity_path_16" fill="none" stroke="none"></path></g><g id="minder_node2"><g id="node_expander1" style="cursor: pointer;"><path id="kity_path_41" fill="white" stroke="gray" d="M602.5000139549375,83.50000298768282A6,6,0,1,1,590.5000139549375,83.50000298768282A6,6,0,1,1,602.5000139549375,83.50000298768282"></path><path id="kity_path_42" fill="none" stroke="gray" d="M592.0000139549375,83.50000298768282L601.0000139549375,83.50000298768282"></path></g><path id="node_outline2" fill="rgb(246, 238, 238)" stroke="rgb(191, 115, 115)" d="M606.5000143572688,70.50000298768282h90a3,3,0,0,1,3,3v20a3,3,0,0,1,-3,3h-90a3,3,0,0,1,-3,-3v-20a3,3,0,0,1,3,-3z" stroke-width="1"></path><g id="node_text2" fill="black"><text id="kity_text_38" text-rendering="inherit" font-size="14" dy=".8em" y="74.40000295639038" x="623.5000143572688">画面设计</text></g></g><g id="minder_node3"><g id="node_expander2" style="cursor: pointer;" display="none"><path id="kity_path_49" fill="white" stroke="gray" d="M739.5000159963965,31.500002212822437A6,6,0,1,1,727.5000159963965,31.500002212822437A6,6,0,1,1,739.5000159963965,31.500002212822437"></path><path id="kity_path_50" fill="none" stroke="gray" d="M729.0000159963965,31.500002212822437L738.0000159963965,31.500002212822437"></path></g><path id="node_outline3" fill="none" stroke="none" d="M744.5000162348151,20.500002212822437h59a5,5,0,0,1,5,5v12a5,5,0,0,1,-5,5h-59a5,5,0,0,1,-5,-5v-12a5,5,0,0,1,5,-5z" stroke-width="3"></path><g id="node_text3" fill="black"><text id="kity_text_46" text-rendering="inherit" font-size="12" dy=".8em" y="23.700002186000347" x="749.5000162348151">飞行小鸟</text></g></g><g id="minder_node6"><g id="node_expander5" style="cursor: pointer;" display="none"><path id="kity_path_73" fill="white" stroke="gray" d="M739.5000159963965,83.50000298768282A6,6,0,1,1,727.5000159963965,83.50000298768282A6,6,0,1,1,739.5000159963965,83.50000298768282"></path><path id="kity_path_74" fill="none" stroke="gray"></path></g><path id="node_outline6" fill="none" stroke="none" d="M744.5000162348151,72.50000298768282h35a5,5,0,0,1,5,5v12a5,5,0,0,1,-5,5h-35a5,5,0,0,1,-5,-5v-12a5,5,0,0,1,5,-5z" stroke-width="3"></path><g id="node_text6" fill="black"><text id="kity_text_70" text-rendering="inherit" font-size="12" dy=".8em" y="75.70000296086073" x="749.5000162348151">水管</text></g></g><g id="minder_node9"><g id="node_expander8" style="cursor: pointer;" display="none"><path id="kity_path_97" fill="white" stroke="gray" d="M739.5000159963965,135.5000037625432A6,6,0,1,1,727.5000159963965,135.5000037625432A6,6,0,1,1,739.5000159963965,135.5000037625432"></path><path id="kity_path_98" fill="none" stroke="gray"></path></g><path id="node_outline9" fill="none" stroke="none" d="M744.5000162348151,124.5000037625432h60a5,5,0,0,1,5,5v12a5,5,0,0,1,-5,5h-60a5,5,0,0,1,-5,-5v-12a5,5,0,0,1,5,-5z" stroke-width="3"></path><g id="node_text9" fill="black"><text id="kity_text_94" text-rendering="inherit" font-size="12" dy=".8em" y="127.70000373572111" x="749.5000162348151">界面构造</text></g></g><g id="minder_node10"><g id="node_expander9" style="cursor: pointer;"><path id="kity_path_105" fill="white" stroke="gray" d="M602.5000139549375,223.5000050738454A6,6,0,1,1,590.5000139549375,223.5000050738454A6,6,0,1,1,602.5000139549375,223.5000050738454"></path><path id="kity_path_106" fill="none" stroke="gray" d="M592.0000139549375,223.5000050738454L601.0000139549375,223.5000050738454"></path></g><path id="node_outline10" fill="rgb(246, 238, 238)" stroke="rgb(191, 115, 115)" d="M606.5000143572688,210.5000050738454h92a3,3,0,0,1,3,3v20a3,3,0,0,1,-3,3h-92a3,3,0,0,1,-3,-3v-20a3,3,0,0,1,3,-3z" stroke-width="1"></path><g id="node_text10" fill="black"><text id="kity_text_102" text-rendering="inherit" font-size="14" dy=".8em" y="214.40000504255295" x="623.5000143572688">游戏过程</text></g></g><g id="minder_node11"><g id="node_expander10" style="cursor: pointer;"><path id="kity_path_113" fill="white" stroke="gray" d="M264.500008918345,96.50000318139791A6,6,0,1,1,252.50000891834497,96.50000318139791A6,6,0,1,1,264.500008918345,96.50000318139791"></path><path id="kity_path_114" fill="none" stroke="gray" d="M254.00000891834497,96.50000318139791L263.000008918345,96.50000318139791"></path></g><path id="node_outline11" fill="rgb(246, 238, 238)" stroke="rgb(191, 115, 115)" d="M157.50000766664743,83.50000318139791h91a3,3,0,0,1,3,3v20a3,3,0,0,1,-3,3h-91a3,3,0,0,1,-3,-3v-20a3,3,0,0,1,3,-3z" stroke-width="1"></path><g id="node_text11" fill="black"><text id="kity_text_110" text-rendering="inherit" font-size="14" dy=".8em" y="87.40000315010548" x="174.50000766664743">游戏结束</text></g></g><g id="minder_node12"><g id="node_expander11" style="cursor: pointer;"><path id="kity_path_121" fill="white" stroke="gray" d="M264.500008918345,210.5000048801303A6,6,0,1,1,252.50000891834497,210.5000048801303A6,6,0,1,1,264.500008918345,210.5000048801303"></path><path id="kity_path_122" fill="none" stroke="gray" d="M254.00000891834497,210.5000048801303L263.000008918345,210.5000048801303"></path></g><path id="node_outline12" fill="rgb(246, 238, 238)" stroke="rgb(191, 115, 115)" d="M158.5000076815486,197.5000048801303h90a3,3,0,0,1,3,3v20a3,3,0,0,1,-3,3h-90a3,3,0,0,1,-3,-3v-20a3,3,0,0,1,3,-3z" stroke-width="1"></path><g id="node_text12" fill="black"><text id="kity_text_118" text-rendering="inherit" font-size="14" dy=".8em" y="201.40000484883785" x="175.5000076815486">常规功能</text></g></g><g id="minder_node13"><g id="node_expander12" style="cursor: pointer;" display="none"><path id="kity_path_129" fill="white" stroke="gray" d="M741.5000160261989,197.5000046864152A6,6,0,1,1,729.5000160261989,197.5000046864152A6,6,0,1,1,741.5000160261989,197.5000046864152"></path><path id="kity_path_130" fill="none" stroke="gray"></path></g><path id="node_outline13" fill="none" stroke="none" d="M746.5000162646174,186.5000046864152h83a5,5,0,0,1,5,5v12a5,5,0,0,1,-5,5h-83a5,5,0,0,1,-5,-5v-12a5,5,0,0,1,5,-5z" stroke-width="3"></path><g id="node_text13" fill="black"><text id="kity_text_126" text-rendering="inherit" font-size="12" dy=".8em" y="189.7000046595931" x="751.5000162646174">场景向后移动</text></g></g><g id="minder_node14"><g id="node_expander13" style="cursor: pointer;" display="none"><path id="kity_path_137" fill="white" stroke="gray" d="M741.5000160261989,249.50000546127558A6,6,0,1,1,729.5000160261989,249.50000546127558A6,6,0,1,1,741.5000160261989,249.50000546127558"></path><path id="kity_path_138" fill="none" stroke="gray"></path></g><path id="node_outline14" fill="none" stroke="none" d="M746.5000162646174,238.50000546127558h107a5,5,0,0,1,5,5v12a5,5,0,0,1,-5,5h-107a5,5,0,0,1,-5,-5v-12a5,5,0,0,1,5,-5z" stroke-width="3"></path><g id="node_text14" fill="black"><text id="kity_text_134" text-rendering="inherit" font-size="12" dy=".8em" y="241.7000054344535" x="751.5000162646174">小鸟向上移动控制</text></g></g><g id="minder_node15"><g id="node_expander14" style="cursor: pointer;" display="none"><path id="kity_path_145" fill="white" stroke="gray" d="M126.50000686198473,70.50000279396772A6,6,0,1,1,114.50000686198473,70.50000279396772A6,6,0,1,1,126.50000686198473,70.50000279396772"></path><path id="kity_path_146" fill="none" stroke="gray"></path></g><path id="node_outline15" fill="none" stroke="none" d="M25.500005520880222,59.500002793967724h84a5,5,0,0,1,5,5v12a5,5,0,0,1,-5,5h-84a5,5,0,0,1,-5,-5v-12a5,5,0,0,1,5,-5z" stroke-width="3"></path><g id="node_text15" fill="black"><text id="kity_text_142" text-rendering="inherit" font-size="12" dy=".8em" y="62.700002767145634" x="30.500005520880222">碰撞死亡判定</text></g></g><g id="minder_node16"><g id="node_expander15" style="cursor: pointer;" display="none"><path id="kity_path_153" fill="white" stroke="gray" d="M126.50000686198473,122.5000035688281A6,6,0,1,1,114.50000686198473,122.5000035688281A6,6,0,1,1,126.50000686198473,122.5000035688281"></path><path id="kity_path_154" fill="none" stroke="gray"></path></g><path id="node_outline16" fill="none" stroke="none" d="M50.50000589340925,111.5000035688281h59a5,5,0,0,1,5,5v12a5,5,0,0,1,-5,5h-59a5,5,0,0,1,-5,-5v-12a5,5,0,0,1,5,-5z" stroke-width="3"></path><g id="node_text16" fill="black"><text id="kity_text_150" text-rendering="inherit" font-size="12" dy=".8em" y="114.70000354200602" x="55.50000589340925">结束界面</text></g></g><g id="minder_node17"><g id="node_expander16" style="cursor: pointer;" display="none"><path id="kity_path_161" fill="white" stroke="gray" d="M127.50000687688589,184.5000044927001A6,6,0,1,1,115.50000687688589,184.5000044927001A6,6,0,1,1,127.50000687688589,184.5000044927001"></path><path id="kity_path_162" fill="none" stroke="gray"></path></g><path id="node_outline17" fill="none" stroke="none" d="M51.50000590831041,173.5000044927001h59a5,5,0,0,1,5,5v12a5,5,0,0,1,-5,5h-59a5,5,0,0,1,-5,-5v-12a5,5,0,0,1,5,-5z" stroke-width="3"></path><g id="node_text17" fill="black"><text id="kity_text_158" text-rendering="inherit" font-size="12" dy=".8em" y="176.700004465878" x="56.50000590831041">重力添加</text></g></g><g id="minder_node18"><g id="node_expander17" style="cursor: pointer;" display="none"><path id="kity_path_169" fill="white" stroke="gray" d="M127.50000687688589,236.50000526756048A6,6,0,1,1,115.50000687688589,236.50000526756048A6,6,0,1,1,127.50000687688589,236.50000526756048"></path><path id="kity_path_170" fill="none" stroke="gray"></path></g><path id="node_outline18" fill="none" stroke="none" d="M27.500005550682545,225.50000526756048h83a5,5,0,0,1,5,5v12a5,5,0,0,1,-5,5h-83a5,5,0,0,1,-5,-5v-12a5,5,0,0,1,5,-5z" stroke-width="3"></path><g id="node_text18" fill="black"><text id="kity_text_166" text-rendering="inherit" font-size="12" dy=".8em" y="228.7000052407384" x="32.500005550682545">水管位置随机</text></g></g></g></g></svg>